<?xml version="1.0" encoding="UTF-8"?>
<svg id="Layer_2" xmlns="http://www.w3.org/2000/svg" viewBox="0 0 304.07 275.89">
  <defs>
    <style>
      .cls-1 {
        fill: #bfbfbf;
      }
    </style>
  </defs>
  <g id="Cards">
    <path class="cls-1" d="M239.01,114.55c0,2.59,0,5.18,0,7.77-.01,46.91-.02,93.82-.07,140.73,0,1.78-.17,3.64-.67,5.33-1.46,4.91-5.13,7.5-10.28,7.5-35.27,0-70.53,0-105.8,0-15.39,0-30.78,0-46.17,0-6.45,0-10.64-3.66-11.42-10.11-.27-2.25-.43-4.52-.43-6.79-.02-45.84-.01-91.68-.04-137.52,0-2.43-.23-4.86-.36-7.29-.19-.04-.39-.09-.58-.13-.37.41-.76.8-1.09,1.24-3.74,4.88-7.4,9.82-11.21,14.63-3.06,3.87-6.94,4.33-10.83,1.25-5.61-4.43-11.12-9-16.64-13.55-5.93-4.89-11.86-9.79-17.73-14.75-1.52-1.29-3.01-2.69-4.19-4.28-2.12-2.85-1.92-6.2.14-8.91,5.74-7.55,11.47-15.1,17.16-22.68,10.34-13.78,20.59-27.63,31-41.36,3.71-4.9,8.61-8.22,14.57-10.07,9.4-2.92,18.76-5.97,28.06-9.2,2.86-.99,5.56-2.57,8.13-4.2,4.74-3.01,9.36-2.69,13.92.11,6.5,4,13.74,5.66,21.12,6.9,8.68,1.46,17.43,1.66,26.18.77,7.76-.79,15.47-1.98,22.71-5.11,1.58-.69,3.14-1.49,4.58-2.43,4.37-2.85,8.84-3.4,13.29-.45,7.82,5.18,16.9,7.07,25.56,10.03,3.78,1.29,7.59,2.48,11.4,3.68,6.74,2.12,11.61,6.67,15.78,12.13,15.8,20.71,31.59,41.43,47.38,62.14,2.63,3.45,1.97,8.02-1.78,11.19-6.28,5.31-12.61,10.55-18.94,15.8-5.76,4.78-11.53,9.55-17.34,14.27-3.67,2.98-7.9,2.53-10.97-1.07-4.08-4.78-8.15-9.57-12.19-14.39-.46-.55-.67-1.3-1-1.96-.41.26-.83.51-1.24.77ZM113.99,19.36c.05.2.05.62.24.93,4.08,6.66,9.18,12.33,16.11,16.1,8.89,4.82,18.47,6.03,28.33,4.53,12.86-1.96,22.77-8.6,29.66-19.67.34-.54.49-1.2.63-1.53-25.09,7.72-49.95,7.87-74.96-.36Z"/>
  </g>
</svg>