<?xml version="1.0" encoding="UTF-8"?>
<svg id="Layer_2" xmlns="http://www.w3.org/2000/svg" viewBox="0 0 288.05 275.89">
  <defs>
    <style>
      .cls-1 {
        fill: #bfbfbf;
      }
    </style>
  </defs>
  <g id="Cards">
    <path class="cls-1" d="M144.89,275.89c-23.24-.59-48.78-4.69-72.62-16.29-32.37-15.75-54.41-40.74-65.72-74.98C.16,165.26-1.26,145.33,1.02,125.21,5.33,87.05,23.83,57.04,54.38,34.23,76.9,17.42,102.45,7.86,130.02,3.46c14.99-2.39,30.08-3.99,45.31-3.3,17.56.8,34.68,3.62,50.54,11.74,7.99,4.09,15.08,9.4,21.17,15.98,13.27,14.34,15.01,34.54,4.34,51.37-4.54,7.17-9.5,14.07-14.09,21.21-2.56,3.97-3.79,8.39-3.36,13.22.46,5.13,2.68,9.34,6.96,11.99,6.67,4.14,13.67,7.73,20.4,11.77,4.29,2.57,8.7,5.13,12.44,8.41,10.43,9.16,14.51,21.12,14.3,34.79-.34,21.71-9.37,39.4-24.83,54.17-14.3,13.66-31.27,22.85-49.71,29.49-21.19,7.63-43.08,11.38-68.61,11.57ZM172.45,171.69c.03,16.2,13.37,30,29,30.01,16.15,0,29.45-13.73,29.38-30.34-.07-16.04-13.76-30.1-29.33-30.14-15.78-.04-29.08,13.91-29.05,30.46ZM89.57,230.55c12.52.04,22.81-9.78,22.86-21.82.04-12.59-9.48-22.55-21.66-22.67-12.64-.12-22.89,9.73-22.91,22.03-.02,12.73,9.34,22.42,21.72,22.46ZM76.19,147.91c.08-12.05-9.66-22.14-21.53-22.3-12.61-.17-23.02,9.55-23.1,21.57-.08,11.87,9.79,21.98,21.54,22.05,13.07.08,23.02-9.1,23.1-21.32ZM102.1,83.72c.08-12.22-9.56-22.34-21.38-22.44-12.44-.1-22.33,9.56-22.38,21.88-.06,12.31,9.58,22.13,21.8,22.23,11.8.09,21.89-9.87,21.97-21.68ZM144.32,81.49c12.46.98,22.94-8.11,23.63-20.95.51-9.49-6.21-21.72-20.96-22.57-12.26-.71-21.74,8.36-22.92,19.81-1.42,13.72,9.49,23.91,20.26,23.71Z"/>
  </g>
</svg>