<?xml version="1.0" encoding="UTF-8" standalone="no"?>
<!DOCTYPE svg PUBLIC "-//W3C//DTD SVG 1.1//EN" "http://www.w3.org/Graphics/SVG/1.1/DTD/svg11.dtd">
<svg width="100%" height="100%" viewBox="0 0 274 253" version="1.1" xmlns="http://www.w3.org/2000/svg" xmlns:xlink="http://www.w3.org/1999/xlink" xml:space="preserve" xmlns:serif="http://www.serif.com/" style="fill-rule:evenodd;clip-rule:evenodd;stroke-linejoin:round;stroke-miterlimit:2;">
    <g transform="matrix(1,0,0,1,-1027.305172,-338.794461)">
        <g>
            <path d="M1251.91,443.28C1251.861,443.221 1251.787,443.186 1251.71,443.186C1251.567,443.186 1251.45,443.303 1251.45,443.446C1251.45,443.447 1251.45,443.449 1251.45,443.45C1251.457,468.63 1251.473,509.753 1251.5,566.82C1251.507,572.42 1251.42,575.703 1251.24,576.67C1250.1,582.82 1245.73,588.15 1240.16,590.62C1238.653,591.293 1235.837,591.63 1231.71,591.63C1197.757,591.623 1154.677,591.62 1102.47,591.62C1096.517,591.62 1093.213,591.557 1092.56,591.43C1086.29,590.23 1081.2,585.32 1079.19,579.17C1078.537,577.177 1078.22,574.183 1078.24,570.19C1078.307,556.817 1078.297,514.46 1078.21,443.12C1078.209,442.945 1078.088,442.793 1077.92,442.76C1077.653,442.707 1077.43,442.793 1077.25,443.02C1073.357,447.827 1069.06,452.427 1064.36,456.82C1064.13,457.031 1063.856,457.188 1063.56,457.28C1060.453,458.247 1057.807,457.357 1055.62,454.61C1041.64,436.997 1032.703,425.587 1028.81,420.38C1028.531,420.002 1028.309,419.588 1028.15,419.15C1027.217,416.597 1027.057,413.943 1027.67,411.19C1028.003,409.683 1029.48,407.497 1032.1,404.63C1051.18,383.78 1060.68,372.76 1070.13,364.14C1082.377,352.973 1096.727,345.15 1113.18,340.67C1116.9,339.66 1125.18,337.56 1128.81,340C1129.337,340.353 1130.237,341.727 1131.51,344.12C1138.85,357.88 1153.03,366.52 1168.78,364.57C1182.52,362.87 1192.11,355.12 1198.53,342.84C1200.4,339.27 1203.25,338.42 1207,338.93C1231.55,342.3 1251,354.72 1267.46,372.86C1282.213,389.113 1291.74,399.653 1296.04,404.48C1299.45,408.32 1301.62,411.38 1300.63,416.9C1300.1,419.88 1296.76,423.73 1294.89,426.14C1284.71,439.187 1277.723,448.28 1273.93,453.42C1270.75,457.73 1266.41,459.86 1262.12,454.9C1261.073,453.687 1257.67,449.813 1251.91,443.28ZM1113.89,422.95C1113.911,422.588 1114.218,422.304 1114.58,422.31L1127.41,422.53C1128.728,422.552 1129.958,421.839 1130.6,420.68C1132.44,417.32 1132.043,414.727 1129.41,412.9C1128.892,412.545 1128.281,412.356 1127.66,412.36C1125.48,412.36 1119.507,412.313 1109.74,412.22C1105.83,412.18 1104.54,414.85 1104.58,418.54C1104.587,419.007 1104.513,425.613 1104.36,438.36C1104.27,446.02 1113.73,445.68 1113.72,438.37C1113.72,430.097 1113.777,424.957 1113.89,422.95ZM1215.25,423.04C1215.337,425.047 1215.33,430.177 1215.23,438.43C1215.14,445.73 1224.58,446.17 1224.58,438.53C1224.573,425.803 1224.577,419.207 1224.59,418.74C1224.66,415.06 1223.41,412.39 1219.51,412.38C1209.763,412.36 1203.8,412.337 1201.62,412.31C1201,412.3 1200.39,412.482 1199.87,412.83C1197.223,414.623 1196.8,417.207 1198.6,420.58C1199.227,421.743 1200.445,422.468 1201.76,422.46L1214.56,422.39C1214.926,422.384 1215.234,422.675 1215.25,423.04ZM1159.38,426.948C1159.376,424.787 1157.594,423.011 1155.433,423.015L1138.253,423.045C1136.094,423.049 1134.32,424.826 1134.32,426.985C1134.32,426.987 1134.32,426.99 1134.32,426.992L1134.32,427.372C1134.324,429.533 1136.106,431.309 1138.267,431.305L1155.447,431.275C1157.606,431.271 1159.38,429.494 1159.38,427.335C1159.38,427.333 1159.38,427.33 1159.38,427.328L1159.38,426.948ZM1195.557,426.983C1195.527,424.859 1193.772,423.128 1191.647,423.128C1191.629,423.128 1191.611,423.128 1191.593,423.128L1174.094,423.373C1171.95,423.403 1170.209,425.192 1170.239,427.337L1170.243,427.597C1170.273,429.721 1172.028,431.452 1174.153,431.452C1174.171,431.452 1174.189,431.452 1174.207,431.452L1191.706,431.207C1193.85,431.177 1195.591,429.388 1195.561,427.243L1195.557,426.983ZM1122.392,447.477C1122.407,445.409 1120.717,443.696 1118.649,443.681L1118.429,443.68C1116.36,443.665 1114.647,445.355 1114.632,447.423L1114.488,468.143C1114.473,470.211 1116.163,471.924 1118.231,471.939L1118.451,471.94C1120.52,471.955 1122.233,470.265 1122.248,468.197L1122.392,447.477ZM1214.612,447.453C1214.608,445.41 1212.926,443.73 1210.882,443.73C1210.88,443.73 1210.675,443.73 1210.675,443.73C1208.632,443.734 1206.952,445.416 1206.952,447.46C1206.952,447.462 1206.952,447.465 1206.952,447.467L1206.988,468.207C1206.992,470.25 1208.674,471.93 1210.718,471.93C1210.72,471.93 1210.925,471.93 1210.925,471.93C1212.968,471.926 1214.648,470.244 1214.648,468.2C1214.648,468.198 1214.648,468.195 1214.648,468.193L1214.612,447.453ZM1214.692,486.883C1214.688,484.823 1212.992,483.13 1210.932,483.13C1210.93,483.13 1210.705,483.13 1210.705,483.13C1208.645,483.134 1206.952,484.83 1206.952,486.89C1206.952,486.892 1206.952,486.895 1206.952,486.897L1206.988,507.537C1206.992,509.597 1208.688,511.29 1210.748,511.29C1210.75,511.29 1210.975,511.29 1210.975,511.29C1213.035,511.286 1214.728,509.59 1214.728,507.53C1214.728,507.528 1214.728,507.525 1214.728,507.523L1214.692,486.883ZM1122.24,487.16C1122.24,485.13 1120.57,483.46 1118.54,483.46L1118.34,483.46C1116.31,483.46 1114.64,485.13 1114.64,487.16L1114.64,507.5C1114.64,509.53 1116.31,511.2 1118.34,511.2L1118.54,511.2C1120.57,511.2 1122.24,509.53 1122.24,507.5L1122.24,487.16ZM1215.24,533.38C1215.224,533.742 1214.922,534.03 1214.56,534.03L1201.76,534.03C1200.445,534.03 1199.23,534.763 1198.61,535.93C1196.83,539.31 1197.27,541.89 1199.93,543.67C1200.451,544.015 1201.061,544.193 1201.68,544.18C1203.86,544.14 1209.82,544.083 1219.56,544.01C1223.46,543.98 1224.7,541.3 1224.6,537.62C1224.587,537.153 1224.547,530.56 1224.48,517.84C1224.44,510.2 1215.01,510.7 1215.14,517.99C1215.287,526.243 1215.32,531.373 1215.24,533.38ZM1113.87,533.48C1113.763,531.46 1113.737,526.3 1113.79,518C1113.84,510.67 1104.35,510.28 1104.4,517.96C1104.48,530.747 1104.517,537.377 1104.51,537.85C1104.45,541.55 1105.72,544.23 1109.65,544.21C1119.437,544.177 1125.427,544.167 1127.62,544.18C1128.24,544.186 1128.851,544.001 1129.37,543.65C1132.023,541.83 1132.437,539.23 1130.61,535.85C1129.972,534.685 1128.742,533.964 1127.42,533.98L1114.56,534.12C1114.201,534.126 1113.896,533.843 1113.87,533.48ZM1159.468,528.374C1159.444,526.141 1157.601,524.317 1155.368,524.317C1155.354,524.317 1155.339,524.317 1155.325,524.317L1137.526,524.503C1135.293,524.527 1133.469,526.37 1133.469,528.603C1133.469,528.617 1133.469,528.632 1133.469,528.646L1133.472,528.946C1133.496,531.179 1135.339,533.003 1137.572,533.003C1137.586,533.003 1137.601,533.003 1137.615,533.003L1155.414,532.817C1157.647,532.793 1159.471,530.95 1159.471,528.717C1159.471,528.703 1159.471,528.688 1159.471,528.674L1159.468,528.374ZM1195.749,528.376C1195.741,526.077 1193.843,524.192 1191.544,524.2L1174.485,524.26C1172.191,524.268 1170.309,526.157 1170.309,528.45C1170.309,528.455 1170.309,528.46 1170.309,528.464L1170.311,529.004C1170.319,531.303 1172.217,533.188 1174.516,533.18L1191.575,533.12C1193.869,533.112 1195.751,531.223 1195.751,528.93C1195.751,528.925 1195.751,528.92 1195.751,528.916L1195.749,528.376Z" style="fill:rgb(141,141,141);fill-rule:nonzero;"/>
        </g>
    </g>
</svg>
